<?xml version="1.0" standalone="no"?>
<!DOCTYPE svg PUBLIC "-//W3C//DTD SVG 20010904//EN" "http://www.w3.org/TR/2001/REC-SVG-20010904/DTD/svg10.dtd">
<svg version="1.0" xmlns="http://www.w3.org/2000/svg" viewBox="210 197 604 590">
  <g transform="translate(0,1024) scale(0.1,-0.1)" fill="#0B4827" stroke="none">
    <path d="M3090 8264 c-14 -2 -59 -9 -100 -15 -149 -22 -324 -99 -462 -202 -188 -141 -323 -338 -395 -578 l-28 -94 -3 -1995 c-2 -1484 0 -2018 8 -2085 41 -311 238 -610 509 -773 93 -55 228 -107 346 -131 99 -21 111 -21 2140 -21 2246 0 2131 -3 2320 62 360 122 640 460 705 848 13 77 9 4054 -4 4110 -108 468 -462 800 -921 865 -84 12 -418 14 -2095 13 -1097 0 -2006 -2 -2020 -4z m4065 -278 c102 -8 241 -58 343 -123 158 -101 288 -280 348 -478 18 -57 19 -160 22 -2035 2 -1448 0 -1991 -8 -2035 -27 -140 -91 -277 -180 -383 -82 -99 -234 -203 -361 -247 l-37 -13 -17 38 c-106 235 -391 501 -730 682 -251 134 -544 240 -788 284 -187 33 -188 34 -554 60 l-73 6 0 98 c0 76 5 112 21 154 24 65 101 186 151 238 31 31 44 37 95 43 393 41 685 165 924 393 50 47 119 124 155 171 131 174 257 492 210 531 -39 31 -348 50 -503 30 -309 -40 -595 -213 -762 -459 -76 -112 -147 -280 -191 -450 -7 -25 -31 -69 -53 -98 l-42 -53 -3 272 c-3 281 4 378 38 544 24 111 79 295 118 389 l28 70 125 42 c284 97 429 163 594 271 132 87 307 261 398 397 192 289 309 675 324 1065 8 210 17 198 -154 181 -647 -64 -1155 -384 -1374 -866 -127 -280 -166 -620 -104 -916 15 -73 15 -78 -4 -110 -21 -37 -121 -328 -121 -353 0 -33 -17 -12 -75 92 l-59 107 -7 135 c-36 679 -465 1161 -1161 1305 -166 35 -395 46 -433 21 -24 -16 -25 -20 -19 -84 22 -245 130 -596 249 -812 75 -134 130 -206 259 -336 235 -234 489 -359 801 -394 55 -6 119 -13 141 -16 23 -3 48 -13 57 -22 24 -27 72 -130 105 -224 60 -169 62 -195 62 -808 l0 -557 -92 -7 c-785 -59 -1585 -489 -1831 -983 -17 -35 -38 -63 -45 -63 -8 0 -56 19 -106 43 -238 114 -411 338 -454 592 -4 22 -7 931 -7 2020 0 1860 1 1984 18 2044 53 192 165 354 322 467 138 98 258 135 460 143 193 8 3887 5 3980 -3z m-1314 -1390 c-135 -170 -401 -569 -471 -705 -32 -64 -35 -43 -5 44 45 134 108 240 252 420 94 117 276 325 281 321 2 -2 -24 -39 -57 -80z m-1590 -498 c91 -90 184 -188 205 -219 21 -31 69 -99 105 -150 76 -108 142 -219 131 -219 -5 0 -60 69 -122 153 -158 211 -314 398 -449 540 -31 31 -51 57 -45 57 5 0 84 -73 175 -162z"/>
  </g>
</svg>
