<?xml version="1.0" encoding="UTF-8" standalone="no"?>
<svg
   version="1.0"
   viewBox="210 197 604 590"
   width="604"
   height="590"
   xmlns="http://www.w3.org/2000/svg"
   xmlns:svg="http://www.w3.org/2000/svg">
  <rect
     style="fill:#ffffff;fill-opacity:1;fill-rule:evenodd"
     id="rect1"
     width="604"
     height="590"
     x="210"
     y="197"
     ry="108" />
  <g
     transform="matrix(0.1,0,0,-0.1,0,1024)"
     fill="#0b4827"
     stroke="none"
     id="g1">
    <path
       d="m 3191.3192,8056.2063 c -13.3036,-1.8583 -56.0655,-8.3622 -95.0263,-13.9371 -141.5892,-20.4409 -307.8852,-91.9843 -439.0216,-187.6851 -178.6494,-131.0079 -306.935,-314.0474 -375.3539,-537.0396 l -26.6074,-87.3387 -2.8508,-1853.623 c -1.9005,-1378.8353 0,-1874.9931 7.6021,-1937.2451 38.9608,-288.9607 226.1627,-566.7719 483.684,-718.2208 88.3745,-51.1024 216.66,-99.4174 328.7911,-121.7166 94.076,-19.5118 105.4792,-19.5118 2033.5632,-19.5118 2134.2911,0 2025.0108,-2.7874 2204.6106,57.6063 342.0947,113.3544 608.1684,427.4018 669.9355,787.9059 12.3534,71.5434 8.5524,3766.7106 -3.801,3818.7422 -102.6285,434.8348 -439.0216,743.3074 -875.1924,803.7012 -79.8221,11.1496 -397.2101,13.0078 -1990.8014,12.0787 -1042.4387,0 -1906.228,-1.8583 -1919.5317,-3.7165 z m 3862.8199,-258.2994 c 96.9268,-7.4331 229.0134,-53.8898 325.9403,-114.2835 150.1416,-93.8426 273.6758,-260.1576 330.6916,-444.1262 17.1047,-52.9607 18.055,-148.6615 20.9058,-1890.7884 1.9005,-1345.3865 0,-1849.9065 -7.6022,-1890.7884 -25.6571,-130.0788 -86.4739,-257.3702 -171.0473,-355.8584 -77.9216,-91.9843 -222.3616,-188.6143 -343.045,-229.4962 l -35.1598,-12.0787 -16.1544,35.3071 c -100.7279,218.3465 -371.553,465.4963 -693.6922,633.6696 -238.516,124.504 -516.9431,222.9922 -748.8074,263.8741 -177.6992,30.6615 -178.6494,31.5906 -526.4458,55.7481 l -69.3692,5.5748 v 91.0552 c 0,70.6142 4.7513,104.063 19.9555,143.0866 22.8064,60.3938 95.9766,172.819 143.4898,221.134 29.4581,28.8032 41.8116,34.378 90.275,39.9528 373.4534,38.0945 650.9303,153.3072 878.0432,365.1498 47.5131,43.6693 113.0813,115.2126 147.2908,158.882 124.4844,161.6693 244.2176,457.1341 199.5552,493.3703 -37.0602,28.8032 -330.6916,46.4567 -477.9823,27.874 -293.6314,-37.1654 -565.4066,-197.9056 -724.1006,-426.4726 -72.22,-104.0631 -139.6887,-260.1577 -181.5003,-418.1105 -6.6518,-23.2283 -29.4581,-64.1103 -50.3639,-91.0552 l -39.9111,-49.2441 -2.8508,252.7246 c -2.8507,261.0867 3.8011,351.2127 36.11,505.449 22.8064,103.134 75.0708,274.0947 112.1311,361.4333 l 26.6074,65.0394 118.7829,39.0236 c 269.8747,90.1261 407.6629,151.4489 564.4563,251.7955 125.4347,80.8346 291.7308,242.504 378.2047,368.8663 182.4506,268.5198 293.6314,627.1657 307.8853,989.5281 7.6021,195.1182 16.1545,183.9685 -146.3405,168.1733 -614.8203,-59.4646 -1097.554,-356.7876 -1305.6616,-804.6304 -120.6835,-260.1576 -157.7437,-576.0633 -98.8274,-851.087 14.2539,-67.8268 14.2539,-72.4725 -3.8011,-102.2048 -19.9555,-34.378 -114.9818,-304.7561 -114.9818,-327.9844 0,-30.6615 -16.1545,-11.1496 -71.2697,85.4803 l -56.0656,99.4174 -6.6518,125.4331 c -34.2095,630.8823 -441.8724,1078.725 -1103.2556,1212.5204 -157.7437,32.5197 -375.3539,42.7401 -411.4639,19.5118 -22.8063,-14.8662 -23.7566,-18.5827 -18.055,-78.0473 20.9058,-227.6379 123.5342,-553.7641 236.6155,-754.4571 71.2697,-124.504 123.5342,-191.4017 246.1182,-312.1891 223.3118,-217.4175 464.6787,-333.5593 761.1608,-366.079 52.2645,-5.5748 113.0813,-12.0787 133.9871,-14.8661 21.856,-2.7874 45.6126,-12.0787 54.165,-20.441 22.8063,-25.0866 68.4189,-120.7874 99.7776,-208.126 57.0158,-157.0238 58.9163,-181.1812 58.9163,-750.7406 v -517.5278 l -87.4242,-6.504 c -745.9566,-54.8189 -1506.1671,-454.3466 -1739.9319,-913.339 -16.1544,-32.5197 -36.11,-58.5355 -42.7618,-58.5355 -7.6021,0 -53.2147,17.6536 -100.7279,39.9528 -226.1626,105.9213 -390.5582,314.0474 -431.4195,550.0475 -3.801,20.441 -6.6518,865.0241 -6.6518,1876.8514 0,1728.1899 0.9502,1843.4025 17.1047,1899.1506 50.364,178.3938 156.7934,328.9135 305.9848,433.9057 131.1363,91.0552 245.1679,125.4331 437.121,132.8662 183.4008,7.4331 3693.673,4.6457 3782.0475,-2.7874 z M 5805.4933,6506.4102 c -128.2856,-157.9528 -381.0556,-528.6774 -447.574,-655.0397 -30.4084,-59.4646 -33.2592,-39.9528 -4.7513,40.8819 42.7618,124.504 102.6284,222.9922 239.4663,390.2364 89.3248,108.7087 262.2727,301.9687 267.024,298.2521 1.9005,-1.8582 -22.8063,-36.2362 -54.165,-74.3307 z M 4294.5748,6043.7013 c 86.474,-83.6221 174.8484,-174.6773 194.804,-203.4804 19.9555,-28.8032 65.5681,-91.9843 99.7776,-139.3702 72.22,-100.3465 134.9374,-203.4804 124.4845,-203.4804 -4.7513,0 -57.0158,64.1103 -115.9321,142.1576 -150.1416,196.0473 -298.3827,369.7954 -426.6682,501.7325 -29.4582,28.8032 -48.4634,52.9607 -42.7618,52.9607 4.7513,0 79.8221,-67.8269 166.296,-150.5198 z"
       id="path1"
       style="stroke-width:0.939639" />
  </g>
</svg>
